<?xml version="1.0" standalone="no"?>
<!DOCTYPE svg PUBLIC "-//W3C//DTD SVG 20010904//EN"
 "http://www.w3.org/TR/2001/REC-SVG-20010904/DTD/svg10.dtd">
<svg version="1.0" xmlns="http://www.w3.org/2000/svg"
 width="310.000000pt" height="310.000000pt" viewBox="0 0 310.000000 310.000000"
 preserveAspectRatio="xMidYMid meet">
<metadata>
Created by potrace 1.14, written by Peter Selinger 2001-2017
</metadata>
<g transform="translate(0.000000,310.000000) scale(0.100000,-0.100000)"
fill="#000000" stroke="none">
<path d="M1495 3090 c-4 -6 -3 -15 1 -22 4 -7 3 -8 -5 -4 -6 4 -14 0 -17 -9
-6 -13 -8 -14 -15 -3 -7 10 -9 10 -9 1 0 -7 -11 -13 -25 -13 -14 0 -25 -6 -25
-12 0 -9 -4 -8 -10 2 -6 9 -13 11 -17 5 -5 -5 -14 -10 -20 -11 -29 -2 -32 -5
-28 -24 2 -11 1 -19 -3 -19 -23 4 -42 -3 -39 -12 1 -6 -8 -12 -20 -14 -30 -2
-41 -14 -24 -24 10 -7 9 -12 -6 -27 -28 -27 -36 -54 -18 -60 15 -6 22 -45 8
-42 -21 4 -79 -27 -76 -40 1 -5 -8 -8 -20 -5 -18 4 -19 3 -7 -6 13 -9 13 -11
-2 -11 -10 0 -18 -5 -18 -11 0 -5 -4 -7 -10 -4 -5 3 -17 -3 -27 -14 -9 -11
-20 -18 -25 -15 -4 3 -8 0 -8 -7 0 -7 -3 -9 -6 -6 -4 3 -15 -5 -26 -18 -11
-14 -25 -22 -31 -18 -7 3 -9 3 -5 -1 8 -10 -23 -47 -34 -40 -4 3 -11 -2 -14
-10 -3 -9 -9 -14 -14 -11 -4 2 -16 -3 -26 -11 -10 -9 -13 -13 -6 -9 6 3 12 1
12 -4 0 -6 -5 -11 -11 -11 -5 0 -8 -4 -4 -9 3 -5 0 -13 -6 -17 -8 -4 -9 -3 -5
4 4 7 3 12 -2 12 -16 0 -33 -27 -35 -58 -1 -21 -6 -28 -16 -24 -9 3 -12 1 -7
-6 4 -7 1 -15 -8 -18 -21 -8 -20 -24 2 -24 14 0 15 -2 2 -10 -11 -7 -12 -10
-2 -10 10 0 10 -4 -2 -16 -17 -16 -22 -39 -8 -30 5 3 9 -1 9 -9 0 -8 -4 -12
-8 -10 -3 3 -13 -3 -20 -12 -10 -12 -10 -14 -1 -9 6 4 12 3 12 -3 0 -5 -8 -15
-17 -20 -13 -8 -14 -10 -4 -11 11 0 10 -4 -5 -16 -19 -15 -19 -16 0 -9 19 6
19 5 3 -13 -9 -10 -14 -22 -10 -25 3 -4 1 -7 -6 -7 -7 0 -9 -4 -6 -10 3 -5 2
-10 -4 -10 -5 0 -13 -9 -16 -20 -3 -11 -13 -20 -21 -20 -13 0 -19 -13 -14 -35
1 -5 -2 -7 -6 -3 -9 10 -35 -12 -28 -23 3 -5 0 -9 -5 -9 -6 0 -10 -6 -8 -12 1
-7 -4 -12 -12 -10 -8 2 -11 -3 -8 -12 4 -9 1 -15 -6 -13 -7 1 -12 -8 -11 -20
0 -12 -4 -19 -9 -16 -6 4 -8 0 -4 -10 3 -9 1 -18 -6 -21 -7 -2 -4 -5 6 -5 9
-1 17 -5 17 -11 0 -5 7 -10 16 -10 8 0 13 -4 10 -9 -4 -5 0 -12 6 -14 10 -4
10 -6 0 -6 -7 -1 -10 -5 -7 -11 4 -6 -1 -7 -11 -3 -12 4 -15 3 -10 -6 4 -6 0
-23 -9 -37 -9 -13 -13 -29 -10 -34 3 -5 1 -11 -4 -14 -5 -4 -8 -14 -7 -23 2
-9 -6 -25 -16 -35 -10 -10 -16 -24 -12 -29 4 -8 9 -7 14 1 5 9 9 9 14 1 4 -6
12 -9 17 -6 5 4 9 1 9 -5 0 -6 4 -9 9 -6 19 12 18 -55 -1 -77 -11 -12 -17 -28
-15 -37 2 -9 -6 -30 -18 -48 -21 -31 -22 -31 -41 -14 -11 10 -25 17 -32 14 -6
-2 -12 1 -12 6 0 5 -12 17 -26 27 -15 9 -23 12 -20 6 7 -10 -6 -16 -27 -12 -5
1 -17 -9 -28 -21 -11 -13 -18 -17 -14 -10 3 6 1 12 -4 12 -6 0 -11 -5 -11 -10
0 -6 -11 -15 -25 -22 -13 -6 -22 -14 -19 -19 2 -4 -3 -12 -12 -17 -9 -5 -18
-20 -19 -33 -2 -13 -8 -36 -14 -51 -5 -14 -8 -38 -5 -52 2 -15 0 -26 -7 -26
-6 0 -9 -5 -7 -12 5 -15 -58 -72 -71 -64 -21 14 -40 -6 -39 -41 1 -19 -5 -38
-12 -43 -8 -5 -14 -29 -14 -64 -1 -31 -4 -56 -8 -56 -5 0 -8 -7 -8 -15 0 -8 3
-15 8 -15 4 0 7 -20 7 -45 0 -25 5 -47 12 -49 6 -3 14 -23 18 -45 4 -23 11
-41 16 -41 5 0 8 -3 8 -7 -1 -5 0 -11 1 -15 4 -13 7 -27 9 -39 0 -5 6 -7 13
-3 7 5 8 3 4 -5 -5 -7 0 -21 10 -32 9 -10 14 -19 10 -19 -4 0 4 -15 18 -33 14
-19 29 -49 32 -68 4 -19 10 -41 15 -49 6 -14 19 -75 23 -120 1 -9 4 -20 7 -25
8 -14 -15 -168 -35 -240 -10 -33 -18 -84 -20 -113 l-2 -52 1377 0 c1096 0
1377 3 1375 13 -6 31 -18 57 -28 57 -7 0 -6 5 1 14 9 11 9 16 -2 23 -7 4 -17
16 -20 27 -4 11 -13 16 -22 12 -9 -3 -15 0 -15 9 0 8 -5 15 -11 15 -8 0 -8 4
0 14 9 11 8 15 -4 20 -9 3 -13 10 -10 16 3 5 3 16 -2 23 -9 14 -10 19 -12 56
-1 20 -7 32 -20 36 -12 4 -18 12 -14 21 3 7 0 14 -6 14 -7 0 -11 6 -10 13 3
17 -12 48 -20 43 -4 -3 -8 11 -9 31 -2 20 -5 40 -8 45 -3 4 0 8 7 8 8 0 8 4 1
12 -11 14 -6 59 7 68 5 3 11 15 15 28 4 12 12 22 17 22 6 0 7 5 4 10 -4 6 -1
9 7 8 7 -2 12 3 10 11 -2 11 0 12 11 2 12 -9 16 -8 22 6 5 10 9 20 9 23 1 3 5
10 9 17 4 6 2 13 -4 15 -5 2 -7 11 -4 21 4 9 11 15 15 12 5 -3 5 7 1 22 -5 16
-5 38 0 49 10 29 3 189 -10 213 -8 13 -8 22 -1 26 6 4 8 10 6 14 -20 32 -21
439 -1 459 3 3 0 11 -6 18 -6 8 -8 22 -4 31 12 29 15 152 4 158 -6 5 -7 11 0
18 10 13 11 16 11 51 0 17 8 27 28 34 21 8 23 11 7 11 -17 1 -18 3 -5 12 11 7
12 12 3 15 -7 3 -9 13 -6 21 5 13 2 15 -11 10 -10 -4 -15 -3 -11 3 5 8 -19 64
-35 80 -12 12 -48 90 -39 84 6 -3 5 3 -2 14 -7 12 -16 19 -19 17 -3 -2 -5 12
-5 31 1 19 -3 38 -8 41 -6 4 -7 1 -2 -7 5 -9 4 -11 -3 -6 -7 4 -8 15 -3 29 12
32 10 121 -3 129 -7 5 -6 8 3 8 11 0 9 4 -5 15 -10 8 -15 15 -11 15 4 0 2 6
-5 14 -7 8 -16 12 -20 10 -3 -2 -18 22 -33 53 -15 32 -38 81 -51 110 -13 28
-24 57 -24 64 0 14 -52 64 -63 61 -5 -1 -6 2 -2 8 3 5 1 10 -4 10 -6 0 -11 7
-11 15 0 9 -11 20 -25 25 -14 5 -24 13 -23 17 3 14 -14 63 -22 63 -12 0 -59
48 -53 54 4 3 0 6 -8 6 -9 0 -25 9 -36 19 -12 11 -24 17 -27 14 -3 -4 -6 -1
-6 6 0 8 -7 11 -15 7 -9 -3 -18 1 -22 10 -3 8 -12 13 -19 10 -7 -3 -16 -1 -19
5 -4 5 -11 7 -16 4 -5 -4 -9 -2 -9 4 0 6 -17 18 -37 28 -21 9 -40 20 -43 25
-3 4 -16 7 -28 8 -55 1 -62 2 -67 11 -4 5 -15 9 -26 9 -10 0 -19 5 -19 11 0 5
-4 7 -10 4 -5 -3 -10 -1 -10 5 0 6 -4 9 -9 5 -5 -3 -12 -1 -16 5 -4 7 -13 6
-27 -1 -16 -8 -19 -8 -13 1 6 9 0 11 -24 8 -17 -2 -31 -1 -31 2 0 4 -81 7
-180 7 -99 0 -180 -4 -180 -8 0 -5 -11 -4 -25 1 -15 6 -26 6 -30 0z"/>
</g>
</svg>
